<?xml version="1.0" encoding="UTF-8" standalone="no"?>
<!-- Created with Inkscape (http://www.inkscape.org/) -->

<svg
   xmlns:dc="http://purl.org/dc/elements/1.1/"
   xmlns:cc="http://creativecommons.org/ns#"
   xmlns:rdf="http://www.w3.org/1999/02/22-rdf-syntax-ns#"
   xmlns:svg="http://www.w3.org/2000/svg"
   xmlns="http://www.w3.org/2000/svg"
   xmlns:sodipodi="http://sodipodi.sourceforge.net/DTD/sodipodi-0.dtd"
   xmlns:inkscape="http://www.inkscape.org/namespaces/inkscape"
   width="152.49437mm"
   height="152.49437mm"
   viewBox="0 0 152.49437 152.49437"
   version="1.1"
   id="svg8"
   inkscape:version="0.92.5 (2060ec1f9f, 2020-04-08)"
   sodipodi:docname="pips_circle.svg"
   inkscape:export-filename="/home/chris/pips_circle.png"
   inkscape:export-xdpi="170.56"
   inkscape:export-ydpi="170.56">
  <defs
     id="defs2" />
  <sodipodi:namedview
     id="base"
     pagecolor="#ffffff"
     bordercolor="#666666"
     borderopacity="1.0"
     inkscape:pageopacity="0.0"
     inkscape:pageshadow="2"
     inkscape:zoom="1.4"
     inkscape:cx="112.48201"
     inkscape:cy="282.43945"
     inkscape:document-units="mm"
     inkscape:current-layer="layer1"
     showgrid="false"
     inkscape:window-width="3752"
     inkscape:window-height="1136"
     inkscape:window-x="88"
     inkscape:window-y="27"
     inkscape:window-maximized="1"
     fit-margin-top="5"
     fit-margin-left="5"
     fit-margin-right="5"
     fit-margin-bottom="5" />
  <metadata
     id="metadata5">
    <rdf:RDF>
      <cc:Work
         rdf:about="">
        <dc:format>image/svg+xml</dc:format>
        <dc:type
           rdf:resource="http://purl.org/dc/dcmitype/StillImage" />
        <dc:title></dc:title>
      </cc:Work>
    </rdf:RDF>
  </metadata>
  <g
     inkscape:label="Layer 1"
     inkscape:groupmode="layer"
     id="layer1"
     transform="translate(-28.445392,8.0174983)">
    <g
       id="g998">
      <circle
         r="68.700691"
         cy="68.229683"
         cx="104.69257"
         id="path974"
         style="opacity:1;fill:#7fbe52;fill-opacity:1;stroke:#7fbe52;stroke-width:5.09297991;stroke-linecap:round;stroke-linejoin:miter;stroke-miterlimit:4;stroke-dasharray:none;stroke-opacity:1" />
      <path
         inkscape:connector-curvature="0"
         id="path938"
         transform="scale(0.26458333)"
         d="m 396.84766,39.751953 c -97.77009,0 -180.65708,64.559087 -208.30274,153.312497 l 23.20899,1.8125 c 26.16901,-77.09127 99.06877,-132.449216 185.09375,-132.449216 85.83445,6e-6 158.60068,55.115416 184.91992,131.939456 l -16.5293,1.77343 16.67188,22.8379 16.66796,22.83593 11.44336,-25.85547 11.44141,-25.85546 -16.68555,1.79296 C 576.76786,103.74737 494.18672,39.751959 396.84766,39.751953 Z m -211.46289,228.374997 -7.73438,27.19727 -7.73633,27.19336 17.28516,-4.34766 C 213.40214,409.24088 297.42584,476 396.84766,476 c 99.69686,-3e-5 183.92125,-67.1267 209.87695,-158.58398 l -21.98633,-5.46485 c -23.41251,81.7071 -98.57954,141.37106 -187.89062,141.3711 -89.05882,0 -164.04374,-59.32964 -187.67969,-140.68165 l 15.58594,-3.92187 -19.68555,-20.29687 z"
         style="color:#000000;font-style:normal;font-variant:normal;font-weight:normal;font-stretch:normal;font-size:medium;line-height:normal;font-family:sans-serif;font-variant-ligatures:normal;font-variant-position:normal;font-variant-caps:normal;font-variant-numeric:normal;font-variant-alternates:normal;font-feature-settings:normal;text-indent:0;text-align:start;text-decoration:none;text-decoration-line:none;text-decoration-style:solid;text-decoration-color:#000000;letter-spacing:normal;word-spacing:normal;text-transform:none;writing-mode:lr-tb;direction:ltr;text-orientation:mixed;dominant-baseline:auto;baseline-shift:baseline;text-anchor:start;white-space:normal;shape-padding:0;clip-rule:nonzero;display:inline;overflow:visible;visibility:visible;opacity:1;isolation:auto;mix-blend-mode:normal;color-interpolation:sRGB;color-interpolation-filters:linearRGB;solid-color:#000000;solid-opacity:1;vector-effect:none;fill:#3a6229;fill-opacity:1;fill-rule:nonzero;stroke:none;stroke-width:22.67716599;stroke-linecap:butt;stroke-linejoin:bevel;stroke-miterlimit:4;stroke-dasharray:none;stroke-dashoffset:0;stroke-opacity:1;color-rendering:auto;image-rendering:auto;shape-rendering:auto;text-rendering:auto;enable-background:accumulate" />
      <path
         inkscape:connector-curvature="0"
         id="rect943"
         transform="scale(0.26458333)"
         d="m 478.54492,125.88281 a 3.7799055,3.7799055 0 0 0 -3.7793,3.7793 v 20.09375 h -27.20117 v 10.34961 255.1582 c 24.99183,-8.2583 47.37161,-22.30873 65.53516,-40.5625 V 149.75586 h -27.20117 v -20.09375 a 3.7799055,3.7799055 0 0 0 -3.7793,-3.7793 z m -84.64453,55.85742 a 3.7799055,3.7799055 0 0 0 -3.7793,3.7793 v 20.09375 h -27.19921 v 10.34961 204.36328 c 10.59665,2.13428 21.55358,3.26172 32.76953,3.26172 11.21383,0 22.16887,-1.12627 32.76367,-3.25977 V 205.61328 h -27.20117 v -20.09375 a 3.7799055,3.7799055 0 0 0 -3.7793,-3.7793 z m -84.64258,70 a 3.7799055,3.7799055 0 0 0 -3.77929,3.7793 v 20.09375 h -27.20118 v 10.34961 88.73242 c 18.16318,18.2552 40.54302,32.30696 65.53516,40.56641 V 275.61328 h -27.20117 v -20.09375 a 3.7799055,3.7799055 0 0 0 -3.7793,-3.7793 z"
         style="color:#000000;font-style:normal;font-variant:normal;font-weight:normal;font-stretch:normal;font-size:medium;line-height:normal;font-family:sans-serif;font-variant-ligatures:normal;font-variant-position:normal;font-variant-caps:normal;font-variant-numeric:normal;font-variant-alternates:normal;font-feature-settings:normal;text-indent:0;text-align:start;text-decoration:none;text-decoration-line:none;text-decoration-style:solid;text-decoration-color:#000000;letter-spacing:normal;word-spacing:normal;text-transform:none;writing-mode:lr-tb;direction:ltr;text-orientation:mixed;dominant-baseline:auto;baseline-shift:baseline;text-anchor:start;white-space:normal;shape-padding:0;clip-rule:nonzero;display:inline;overflow:visible;visibility:visible;opacity:1;isolation:auto;mix-blend-mode:normal;color-interpolation:sRGB;color-interpolation-filters:linearRGB;solid-color:#000000;solid-opacity:1;vector-effect:none;fill:#3a6229;fill-opacity:1;fill-rule:nonzero;stroke:none;stroke-width:20.70425224;stroke-linecap:round;stroke-linejoin:miter;stroke-miterlimit:4;stroke-dasharray:none;stroke-dashoffset:0;stroke-opacity:1;color-rendering:auto;image-rendering:auto;shape-rendering:auto;text-rendering:auto;enable-background:accumulate" />
    </g>
  </g>
</svg>
